<?xml version="1.0" encoding="UTF-8"?>
<svg id="Camada_1" xmlns="http://www.w3.org/2000/svg" version="1.1" viewBox="0 0 500.9 3699.4">
  <!-- Generator: Adobe Illustrator 29.8.3, SVG Export Plug-In . SVG Version: 2.1.1 Build 3)  -->
  <defs>
    <style>
      .st0 {
        fill: #1d1d1b;
      }

      .st1 {
        stroke-width: 11.3px;
      }

      .st1, .st2 {
        fill: none;
        stroke: #1d1d1b;
        stroke-miterlimit: 10;
      }

      .st2 {
        stroke-width: 11.3px;
      }
    </style>
  </defs>
  <path class="st1" d="M16,3707.1c54.6-49.5,164.2-151.7,151.9-231.7-8.6-39.7-44.7-75-34.5-118.2,7.4-38.1,50.6-63.6,48.9-103.9-2.8-48.6-61.7-76.5-54.8-135.4,3.4-35,31.4-58.9,46.8-89.1,14.3-26.6,14.2-58.9-1.7-84.9-22.3-38-68-64.5-73.1-111.4-11-82.9,122-123.6,77.6-210-18.2-32-52.9-55.4-65.9-91.3-30.4-75.9,41-126.3,65.4-202.4,5.4-15.5,9.5-31.7,11.8-48,28.6-159.1-154.7-247.2-83.9-386.9,25-55.8,136.4-82.3,100.6-148.6-21.2-37.6-77.4-111.1-72.8-159.2,7.6-102.7,136.4-177.8,83.4-288.3-31.3-53.2-91.7-83.6-104.7-152.8-9.3-41.9-5.5-89.2,19.1-125.2,34.9-54.4,114.7-79.8,111.4-150.6-7.6-56.7-68.1-81-99.5-135.2-84.8-138.8,67.8-215.6,100.3-335.7C280.8,222.2,30.3,170,69.2,77.9,94.6,29.3,199.1,9.6,248.5,0"/>
  <path class="st2" d="M481.3,0c-80.5,133.7-188.4,324.2-148.1,476.3,8.4,33.3,23,66.7,30.4,101.3,8.1,36,6.3,79.2-5.7,114.2-10.3,32.4-29.4,57.2-40.5,89-47.7,139.3,88,192.1,50,355.1-11.4,48.9-39.3,87-52.4,135.8-6.6,23.7-9.8,51-8.8,76.4-1.1,102.7,85.7,168.9,95,268.7,9.1,67.7-17.6,115.4-37.2,166.3-48.1,125.1,252.4,174.1,26.7,356.4-39.4,31.9-102.7,71.8-81.2,175.7,13.7,66.6,89.3,114.5,97.4,169.4,3.1,19.5-4.5,39.1-15.9,55-19.6,30-79.9,43.7-86.6,78.2-2.5,20.7,35.5,42.2,48.1,57,76.4,76.4-64,160.2-104.1,216.5-49.9,70.7,73.9,84,114.9,131.6,31.1,33,33.5,71.6-5.3,100.3-27.3,24-94.4,39.5-93.4,80.6,12.6,51.6,105.2,70,136,125.9,11.2,18.1,11.6,41.2-2.2,57.8-35.4,47.5-144.7,52.3-145.2,125.2,11.6,79.1,132.1,137.1,168.1,186.7"/>
  <path class="st0" d="M928,299.1c3.2,0,3.2-5,0-5s-3.2,5,0,5h0Z"/>
</svg>